<svg xmlns="http://www.w3.org/2000/svg" version="1.1" xmlns:xlink="http://www.w3.org/1999/xlink" width="64" height="64" x="0" y="0" viewBox="0 0 497.44 497.44" style="enable-background:new 0 0 512 512" xml:space="preserve"><g><path d="M479.816 390.912c-5.376-32.232-27.976-58.68-58.976-69.016L352 298.952V288.72h-16v13.992L280 407.72l-56-105v-14h-16v18l64 120v14h-96v16h96v24H153.064l6.384-51.08C169.76 422.856 176 411.408 176 398.832v-6.112h-16v6.112c0 7.984-4.44 15.168-11.576 18.736l-3.832 1.912-7.656 61.24H81.44l9.112-54.688-15.784-2.624-12.216 73.312H497.44l-17.624-105.808zM288 480.72v-24h96v-16h-96v-14l59.88-112.272L384 326.48v72.344c0 12.576 6.24 24.024 16.552 30.816l6.384 51.08H288zm135.064 0-7.656-61.24-3.832-1.912C404.44 413.992 400 406.816 400 398.832v-67.016l15.776 5.256c25.368 8.464 43.856 30.104 48.256 56.472l14.52 87.176h-55.488z" fill="#ffc107"  opacity="1" data-original="#000000"></path><path d="M144 176.72c0 20.528 15.6 37.296 35.536 39.552 4.08 14.04 11.616 26.912 22.24 37.536L232.968 285c7.552 7.552 17.6 11.72 28.288 11.72h37.488c10.688 0 20.736-4.168 28.288-11.72l31.192-31.192c10.624-10.624 18.152-23.496 22.24-37.536C400.4 214.016 416 197.248 416 176.72c0-9.04-3.128-17.296-8.208-24H424v-48h-25.144C392.496 57.496 358.024 17.984 312 5.232V.72h-64v4.512c-46.016 12.752-80.488 52.264-86.856 99.488H136v48h16.208c-5.08 6.704-8.208 14.96-8.208 24zm16 0c0-10.416 6.712-19.216 16-22.528v37.384c0 2.616.152 5.208.376 7.784-9.48-3.2-16.376-12.088-16.376-22.64zm208 14.856c0 19.24-7.496 37.312-21.088 50.92l-31.192 31.192c-4.536 4.536-10.56 7.032-16.976 7.032h-37.488c-6.416 0-12.448-2.496-16.976-7.032l-31.192-31.192c-13.592-13.6-21.088-31.68-21.088-50.912V152.72h176v38.856zm15.624 7.784c.224-2.576.376-5.16.376-7.784v-37.384c9.288 3.312 16 12.112 16 22.528 0 10.552-6.896 19.44-16.376 22.64zM248 21.888V88.72h16v-72h32v72h16V21.888c37.072 12.024 64.752 44.312 70.768 82.832H177.232c6.024-38.528 33.696-70.808 70.768-82.832zM152 136.72v-16h256v16H152z" fill="#ffc107" opacity="1" data-original="#000000"></path><path d="M328 72.72h16v16h-16zM216 72.72h16v16h-16zM73.448 408.72h45.112l4.136-20.624c2.648-.928 5.24-2 7.76-3.192l17.496 11.656 31.896-31.896-11.656-17.496a79.372 79.372 0 0 0 3.192-7.76L192 335.272V290.16l-20.624-4.136a78.99 78.99 0 0 0-5.472-12.168l-13.984 7.784c2.344 4.2 4.216 8.752 5.568 13.504l1.344 4.688 17.168 3.44v18.888l-17.168 3.44-1.344 4.688c-1.352 4.76-3.224 9.304-5.568 13.504l-2.376 4.264 9.696 14.544-13.352 13.352-14.544-9.696-4.264 2.376c-4.2 2.344-8.752 4.216-13.504 5.568l-4.688 1.336-3.44 17.184H86.56l-3.44-17.168-4.688-1.336c-4.76-1.352-9.304-3.224-13.504-5.568l-4.264-2.376-14.544 9.696-17.992-17.984-11.312 11.312 27.256 27.264 17.496-11.656a79.372 79.372 0 0 0 7.76 3.192l4.12 20.624zM26.096 351.576l13.984-7.784c-2.344-4.2-4.216-8.752-5.568-13.504l-1.344-4.688L16 322.168V303.28l17.168-3.44 1.344-4.688c1.352-4.76 3.224-9.304 5.568-13.504l2.376-4.264-9.696-14.544 13.352-13.352 14.544 9.696 4.264-2.376c4.2-2.344 8.752-4.216 13.504-5.568l4.688-1.336 3.44-17.184h18.888l3.44 17.168 4.688 1.336c4.76 1.352 9.304 3.224 13.504 5.568l4.264 2.376 14.544-9.696 17.992 17.984 11.312-11.312-27.256-27.264-17.496 11.656a79.372 79.372 0 0 0-7.76-3.192l-4.12-20.624H73.44l-4.136 20.624c-2.648.928-5.24 2-7.76 3.192L44.048 228.88l-31.896 31.896 11.656 17.496a79.372 79.372 0 0 0-3.192 7.76L0 290.168v45.112l20.624 4.136a79.246 79.246 0 0 0 5.472 12.16z" fill="#ffc107"  opacity="1" data-original="#000000"></path><path d="M96 272.72c-22.056 0-40 17.944-40 40s17.944 40 40 40 40-17.944 40-40-17.944-40-40-40zm0 64c-13.232 0-24-10.768-24-24s10.768-24 24-24 24 10.768 24 24-10.768 24-24 24z" fill="#ffc107"  opacity="1" data-original="#000000"></path></g></svg>