<svg xmlns="http://www.w3.org/2000/svg" version="1.1" xmlns:xlink="http://www.w3.org/1999/xlink" width="64" height="64" x="0" y="0" viewBox="0 0 496 496" style="enable-background:new 0 0 512 512" xml:space="preserve"><g><path d="M312 416c13.232 0 24-10.768 24-24s-10.768-24-24-24c-10.416 0-19.216 6.712-22.528 16H256v-48h33.472c3.312 9.288 12.112 16 22.528 16 13.232 0 24-10.768 24-24s-10.768-24-24-24c-10.416 0-19.216 6.712-22.528 16H256v-48h33.472c3.312 9.288 12.112 16 22.528 16 13.232 0 24-10.768 24-24s-10.768-24-24-24c-10.416 0-19.216 6.712-22.528 16H256v-16h-16v-33.472c9.288-3.312 16-12.112 16-22.528 0-13.232-10.768-24-24-24s-24 10.768-24 24c0 10.416 6.712 19.216 16 22.528V240h-48v-33.472c9.288-3.312 16-12.112 16-22.528 0-13.232-10.768-24-24-24s-24 10.768-24 24c0 10.416 6.712 19.216 16 22.528V240h-48v-33.472c9.288-3.312 16-12.112 16-22.528 0-13.232-10.768-24-24-24s-24 10.768-24 24c0 10.416 6.712 19.216 16 22.528V240H80v16H46.528c-3.312-9.288-12.112-16-22.528-16-13.232 0-24 10.768-24 24s10.768 24 24 24c10.416 0 19.216-6.712 22.528-16H80v48H46.528c-3.312-9.288-12.112-16-22.528-16-13.232 0-24 10.768-24 24s10.768 24 24 24c10.416 0 19.216-6.712 22.528-16H80v48H46.528c-3.312-9.288-12.112-16-22.528-16-13.232 0-24 10.768-24 24s10.768 24 24 24c10.416 0 19.216-6.712 22.528-16H80v16h16v33.472c-9.288 3.312-16 12.112-16 22.528 0 13.232 10.768 24 24 24s24-10.768 24-24c0-10.416-6.712-19.216-16-22.528V416h48v33.472c-9.288 3.312-16 12.112-16 22.528 0 13.232 10.768 24 24 24s24-10.768 24-24c0-10.416-6.712-19.216-16-22.528V416h48v33.472c-9.288 3.312-16 12.112-16 22.528 0 13.232 10.768 24 24 24s24-10.768 24-24c0-10.416-6.712-19.216-16-22.528V416h16v-16h33.472c3.312 9.288 12.112 16 22.528 16zm0-32c4.416 0 8 3.584 8 8s-3.584 8-8 8-8-3.584-8-8 3.584-8 8-8zm0-64c4.416 0 8 3.584 8 8s-3.584 8-8 8-8-3.584-8-8 3.584-8 8-8zm0-64c4.416 0 8 3.584 8 8s-3.584 8-8 8-8-3.584-8-8 3.584-8 8-8zM24 272c-4.416 0-8-3.584-8-8s3.584-8 8-8 8 3.584 8 8-3.584 8-8 8zm0 64c-4.416 0-8-3.584-8-8s3.584-8 8-8 8 3.584 8 8-3.584 8-8 8zm0 64c-4.416 0-8-3.584-8-8s3.584-8 8-8 8 3.584 8 8-3.584 8-8 8zm208-224c4.416 0 8 3.592 8 8s-3.584 8-8 8-8-3.592-8-8 3.584-8 8-8zm-64 0c4.416 0 8 3.592 8 8s-3.584 8-8 8-8-3.592-8-8 3.584-8 8-8zm-64 0c4.416 0 8 3.592 8 8s-3.584 8-8 8-8-3.592-8-8 3.584-8 8-8zm0 304c-4.416 0-8-3.584-8-8s3.584-8 8-8 8 3.584 8 8-3.584 8-8 8zm64 0c-4.416 0-8-3.584-8-8s3.584-8 8-8 8 3.584 8 8-3.584 8-8 8zm64 0c-4.416 0-8-3.584-8-8s3.584-8 8-8 8 3.584 8 8-3.584 8-8 8zm8-80H96V256h144v144z" fill="#000000" opacity="1" data-original="#000000"></path><path d="M459.96 127.992V128a126.848 126.848 0 0 0-13.712-32.992l25.512-25.52-45.256-45.248-25.52 25.52A126.544 126.544 0 0 0 368 36.04V0h-64v36.04c-11.568 2.984-22.616 7.576-32.984 13.712l-25.52-25.52L200.24 69.48 225.752 95a126.848 126.848 0 0 0-13.712 32.992H184v16h40.944l1.304-6.408c2.84-14.008 8.336-27.232 16.336-39.32l3.608-5.448-23.336-23.336 22.632-22.624 23.336 23.336 5.448-3.608c12.08-8 25.304-13.496 39.32-16.336L320 48.952V16h32v32.952l6.408 1.304c14.016 2.84 27.24 8.336 39.32 16.336l5.448 3.608 23.336-23.336 22.632 22.624-23.336 23.336 3.608 5.448c8 12.088 13.496 25.312 16.336 39.32l1.304 6.408H480v32h-32.944l-1.304 6.408c-2.84 14.008-8.336 27.232-16.336 39.312l-3.608 5.456 23.336 23.336-22.632 22.632-23.336-23.336-5.448 3.608c-12.088 8-25.312 13.504-39.32 16.336L352 271.056V312h16v-28.04a126.362 126.362 0 0 0 32.984-13.712l25.52 25.512 45.256-45.256-25.512-25.52a126.848 126.848 0 0 0 13.712-32.992H496v-64h-36.04z" fill="#000000" opacity="1" data-original="#000000"></path><path d="M336 224v16c44.112 0 80-35.888 80-80s-35.888-80-80-80-80 35.888-80 80h16c0-35.288 28.712-64 64-64s64 28.712 64 64-28.712 64-64 64zM112 272h112v16H112zM208 368h16v16h-16zM112 368h80v16h-80zM294.408 475.344l3.184 15.688c97.68-19.832 173.608-95.76 193.44-193.44l-15.688-3.184c-18.536 91.376-89.56 162.4-180.936 180.936zM201.592 20.648l-3.184-15.68C100.728 24.8 24.8 100.728 4.968 198.408l15.688 3.176c18.536-91.36 89.56-162.392 180.936-180.936z" fill="#000000" opacity="1" data-original="#000000"></path></g></svg>