<svg xmlns="http://www.w3.org/2000/svg" version="1.1" xmlns:xlink="http://www.w3.org/1999/xlink" width="64" height="64" x="0" y="0" viewBox="0 0 512 512" style="enable-background:new 0 0 512 512" xml:space="preserve"><g><path d="M212.622 497h15v15h-15z" fill="#000000" opacity="1" data-original="#000000"></path><path d="M369.943 400.425a375.058 375.058 0 0 0-8.925-2.641l-14.886-4.217a57.08 57.08 0 0 0 10.962-7.971c11.438-10.633 17.738-25.343 17.738-41.42V213.419c8.729-3.096 15-11.432 15-21.209v-15.001c0-12.406-10.093-22.5-22.5-22.5H359.7c-1.243-35.652-11.391-66.924-29.54-90.811-19.254-25.34-47.182-41.832-81.007-47.927C246.348 6.739 237.759 0 227.623 0h-15c-10.134 0-18.722 6.736-21.529 15.964-25.516 4.575-47.39 14.879-65.08 30.679l9.992 11.188c14.748-13.173 32.925-22.028 54.117-26.4v93.279h-90.95c4.686-22.082 13.697-41.251 26.72-56.525l-11.414-9.732c-20.94 24.558-32.602 57.718-33.935 96.257h-7.631c-12.406 0-22.5 10.094-22.5 22.5v15.001c0 9.777 6.27 18.113 15 21.209v130.758c0 16.077 6.3 30.787 17.738 41.42a57.123 57.123 0 0 0 10.962 7.971l-14.885 4.216c-18.683 5.291-39.861 12.404-55.284 25.046C7.832 436.035 0 453.422 0 475.984V512h197.622v-15H96.271v-30h-15v30H15v-21.016c0-37.151 25.048-51.515 68.315-63.769l36.128-10.233 62.739 73.2 37.94-37.693 37.941 37.692 62.739-73.199 36.129 10.233.951.271L273.368 497h-30.745v15H512V258.368zm-50.753-14.489-34.206-9.689v-31.021c35.863-21.927 59.848-61.453 59.848-106.478v-24.039h15v129.468c0 25.744-20.496 41.279-40.642 41.759zm-49.206-7.667-49.862 39.117-49.862-39.117v-25.224c15.279 6.692 32.143 10.415 49.862 10.415s34.583-3.723 49.862-10.414zm-159.572-163.56h219.42v24.039c0 60.495-49.216 109.711-109.71 109.711s-109.71-49.216-109.71-109.711zm139.71-74.999h93.423c.573 4.871.957 9.872 1.146 14.999h-94.569zm90.971-15h-90.971V31.431c48.2 10.004 80.458 43.579 90.971 93.279zM212.622 15h15c4.135 0 7.5 3.364 7.5 7.5v132.209h-30V22.5c0-4.136 3.364-7.5 7.5-7.5zM96.714 139.71h93.408v14.999H95.554c.19-5.113.581-10.114 1.16-14.999zm-31.301 37.499c0-4.136 3.364-7.5 7.5-7.5h294.42c4.135 0 7.5 3.364 7.5 7.5v15.001c0 4.135-3.364 7.499-7.5 7.499H72.912c-4.135 0-7.5-3.364-7.5-7.499v-15.001zm14.999 166.968V214.709h15v24.039c0 45.024 23.985 84.55 59.848 106.478v31.021l-34.205 9.689c-20.147-.48-40.643-16.015-40.643-41.759zm54.928 53.303 25.792-7.306 47.682 37.406-25.751 25.582zm121.841 55.682L231.43 427.58l47.682-37.406 25.793 7.306zM467 497v-15h-15v15h-15v-15h-15v15h-15v-15h-15v15h-15v-15h-15v15h-15v-15h-15v15h-37.42L497 294.581v37.421h-15v15h15v14.999h-15v15h15v15h-15v15h15v15h-15v15h15V452h-15v15h15v30z" fill="#000000" opacity="1" data-original="#000000"></path><path d="M459.5 459.5v-92.493L367.006 459.5zm-15-15h-41.28l41.28-41.28zM275.076 64.711h15v15h-15zM290.077 94.71h15v15h-15zM161.998 248.5c4.135 0 7.5 3.364 7.5 7.5h15c0-12.406-10.093-22.5-22.5-22.5s-22.5 10.094-22.5 22.5h15c0-4.136 3.365-7.5 7.5-7.5zM278.247 248.5c4.135 0 7.5 3.364 7.5 7.5h15c0-12.406-10.093-22.5-22.5-22.5s-22.5 10.094-22.5 22.5h15c0-4.136 3.364-7.5 7.5-7.5z" fill="#000000" opacity="1" data-original="#000000"></path></g></svg>