<svg xmlns="http://www.w3.org/2000/svg" version="1.1" xmlns:xlink="http://www.w3.org/1999/xlink" width="64" height="64" x="0" y="0" viewBox="0 0 511 511" style="enable-background:new 0 0 512 512" xml:space="preserve"><g><path d="M375.5 255.5v96h-160v-96M343.5 175.5v-48h32v80" style="stroke-width:15;stroke-miterlimit:10;" fill="none" stroke="#000000" stroke-width="15" stroke-miterlimit="10" data-original="#000000"></path><path d="m295.5 175.5 96 96v-48l-96-96-96 96v48z" style="stroke-width:15;stroke-miterlimit:10;" fill="none" stroke="#000000" stroke-width="15" stroke-miterlimit="10" data-original="#000000"></path><path d="M263.5 247.5h64v64h-64zM295.5 247.5v64M327.5 279.5h-64M455.5 87.5h-80v-80M175.5 47.5h16M207.5 47.5h16M239.5 47.5h16M71.5 391.5v-208h64v208M71.5 215.5h40M71.5 311.5h40M71.5 247.5h24M71.5 279.5h24M71.5 343.5h24M71.5 375.5h24M139.5 487.5h236v-64h-236M343.5 487.5v-40M247.5 487.5v-40M311.5 487.5v-24M279.5 487.5v-24M215.5 487.5v-24M183.5 487.5v-24" style="stroke-width:15;stroke-miterlimit:10;" fill="none" stroke="#000000" stroke-width="15" stroke-miterlimit="10" data-original="#000000"></path><circle cx="103.5" cy="455.5" r="16" style="stroke-width:15;stroke-miterlimit:10;" fill="none" stroke="#000000" stroke-width="15" stroke-miterlimit="10" data-original="#000000"></circle><circle cx="103.5" cy="455.5" r="48" style="stroke-width:15;stroke-miterlimit:10;" fill="none" stroke="#000000" stroke-width="15" stroke-miterlimit="10" data-original="#000000"></circle><path d="M399.5 423.5h56v-336l-80-80h-240v152" style="stroke-width:15;stroke-miterlimit:10;" fill="none" stroke="#000000" stroke-width="15" stroke-miterlimit="10" data-original="#000000"></path></g></svg>