<svg xmlns="http://www.w3.org/2000/svg" width="64" height="64" viewBox="-0.00003423216548981145 -0.41580480337142944 620.0000610351562 602.6658325195312"><g><path d="M615.55 40.57a10.008 10.008 0 0 0 4.45-8.32v-2.629a29.997 29.997 0 0 0-15.824-26.476 30.004 30.004 0 0 0-30.817 1.476L4.45 383.93A10.014 10.014 0 0 0 0 392.25v2.629a29.996 29.996 0 0 0 46.64 25l13.36-8.95v71.321H10c-5.523 0-10 4.477-10 10v100c0 5.52 4.477 10 10 10h600c5.523 0 10-4.48 10-10v-400c0-5.523-4.477-10-10-10h-50V77.602zM460 182.25c-5.523 0-10 4.477-10 10v90h-40V177.602l100-66.672v71.32zm-150 100c-5.523 0-10 4.477-10 10v90h-40V277.602l100-66.672v71.32zm-150 100c-5.523 0-10 4.477-10 10v90h-40V377.602l100-66.672v71.32zm70-84.648 6.66-4.438 3.34-2.234v91.32h-10zm150-100 4.07-2.711 5.93-4v91.359h-10zM35.543 403.25a9.779 9.779 0 0 1-10.266.504 9.924 9.924 0 0 1-5-6.297l564.18-376.156a9.77 9.77 0 0 1 10.266-.5 9.907 9.907 0 0 1 5 6.293zM80 397.602l9.25-6.172.75-.5v91.32H80zM600 582.25H20v-80h140c5.523 0 10-4.48 10-10v-90h140c5.523 0 10-4.48 10-10v-90h140c5.523 0 10-4.477 10-10v-90h130zm-60-400h-10V97.602l1.48-1L540 90.93zm0 0" fill="#000000" opacity="1" data-original="#000000"></path><path d="M580 372.25c-5.523 0-10 4.477-10 10v40c0 5.52 4.477 10 10 10s10-4.48 10-10v-40c0-5.523-4.477-10-10-10zM580 442.25c-5.523 0-10 4.477-10 10v100h-50c-5.523 0-10 4.477-10 10 0 5.52 4.477 10 10 10h60c5.523 0 10-4.48 10-10v-110c0-5.523-4.477-10-10-10zM540 222.25c0 5.523 4.477 10 10 10h20v30c0 5.523 4.477 10 10 10s10-4.477 10-10v-40c0-5.523-4.477-10-10-10h-30c-5.523 0-10 4.477-10 10zM480 552.25H330c-5.523 0-10 4.477-10 10 0 5.52 4.477 10 10 10h150c5.523 0 10-4.48 10-10 0-5.523-4.477-10-10-10zm0 0" fill="#000000" opacity="1" data-original="#000000"></path></g></svg>